<svg width="29" height="30" viewBox="0 0 29 30" fill="none" xmlns="http://www.w3.org/2000/svg">
<path d="M26.512 0.638L24.964 0.409C24.2755 0.307363 23.5748 0.483278 23.016 0.898072C22.4572 1.31287 22.086 1.93259 21.984 2.621L21.522 5.744H7.69997L8.01497 3.618C8.11601 2.92916 7.93948 2.22839 7.52416 1.66963C7.10883 1.11086 6.48869 0.739818 5.79997 0.638L4.25197 0.409C3.5635 0.307363 2.86285 0.483278 2.30404 0.898072C1.74523 1.31287 1.374 1.93259 1.27197 2.621L0.271972 9.371C0.170336 10.0595 0.34625 10.7601 0.761044 11.3189C1.17584 11.8777 1.79556 12.249 2.48397 12.351L4.03197 12.58C4.15979 12.5987 4.2888 12.608 4.41797 12.608C5.04689 12.607 5.65457 12.3803 6.13057 11.9693C6.60658 11.5582 6.91932 10.9901 7.01197 10.368L7.47397 7.244H12.9V12.508C12.3457 12.6702 11.8589 13.0077 11.5126 13.4698C11.1663 13.932 10.9791 14.494 10.9791 15.0715C10.9791 15.649 11.1663 16.211 11.5126 16.6732C11.8589 17.1353 12.3457 17.4728 12.9 17.635V22.835H7.43997V20.172C7.43891 19.4762 7.16198 18.8093 6.6699 18.3174C6.17781 17.8255 5.51075 17.5488 4.81497 17.548H3.24997C2.55429 17.5488 1.88732 17.8255 1.3954 18.3174C0.903477 18.8094 0.626766 19.4763 0.625972 20.172V27C0.627824 27.695 0.905001 28.3609 1.39681 28.852C1.88862 29.343 2.55498 29.6192 3.24997 29.62H4.81497C5.51006 29.6192 6.17652 29.3431 6.66849 28.8521C7.16046 28.361 7.43786 27.6951 7.43997 27V24.334H21.56V27C21.561 27.6958 21.838 28.3627 22.33 28.8546C22.8221 29.3465 23.4892 29.6232 24.185 29.624H25.75C26.4457 29.6232 27.1126 29.3465 27.6045 28.8546C28.0965 28.3626 28.3732 27.6957 28.374 27V20.172C28.3732 19.4763 28.0965 18.8094 27.6045 18.3174C27.1126 17.8255 26.4457 17.5488 25.75 17.548H24.185C23.4892 17.5488 22.8221 17.8255 22.33 18.3174C21.838 18.8093 21.561 19.4762 21.56 20.172V22.834H14.4V17.634C14.9542 17.4718 15.441 17.1343 15.7873 16.6722C16.1336 16.21 16.3208 15.648 16.3208 15.0705C16.3208 14.493 16.1336 13.931 15.7873 13.4688C15.441 13.0067 14.9542 12.6692 14.4 12.507V7.244H21.3L20.985 9.371C20.9347 9.71212 20.9521 10.0598 21.0362 10.3942C21.1203 10.7286 21.2694 11.0431 21.4751 11.3199C21.6808 11.5966 21.939 11.8301 22.235 12.007C22.5309 12.184 22.8588 12.3008 23.2 12.351L24.748 12.58C24.8758 12.5987 25.0048 12.608 25.134 12.608C25.7629 12.607 26.3706 12.3803 26.8466 11.9693C27.3226 11.5582 27.6353 10.9901 27.728 10.368L28.728 3.618C28.829 2.92901 28.6523 2.2281 28.2368 1.66931C27.8213 1.11053 27.2009 0.73958 26.512 0.638ZM6.53097 3.4L5.53097 10.15C5.50979 10.2962 5.45999 10.4367 5.38442 10.5636C5.30884 10.6905 5.20898 10.8013 5.09055 10.8895C4.97211 10.9777 4.83744 11.0418 4.69423 11.0779C4.55102 11.114 4.40209 11.1215 4.25597 11.1L2.70797 10.871C2.56179 10.8496 2.42126 10.7996 2.29445 10.7238C2.16764 10.6479 2.05703 10.5479 1.96896 10.4292C1.8809 10.3106 1.81711 10.1758 1.78124 10.0324C1.74538 9.88912 1.73815 9.74012 1.75997 9.594L2.75997 2.844C2.8042 2.54923 2.9634 2.28399 3.20273 2.10632C3.44205 1.92865 3.74202 1.85303 4.03697 1.896L5.58497 2.125C5.87909 2.16947 6.14367 2.32852 6.32091 2.56741C6.49816 2.8063 6.57368 3.10562 6.53097 3.4ZM5.93997 27C5.93944 27.2981 5.82071 27.5839 5.60982 27.7946C5.39893 28.0053 5.11309 28.1237 4.81497 28.124H3.24997C2.95195 28.1237 2.66621 28.0052 2.45548 27.7945C2.24474 27.5838 2.12624 27.298 2.12597 27V20.172C2.12624 19.874 2.24474 19.5882 2.45548 19.3775C2.66621 19.1668 2.95195 19.0483 3.24997 19.048H4.81497C5.11309 19.0483 5.39893 19.1667 5.60982 19.3774C5.82071 19.5882 5.93944 19.8739 5.93997 20.172V27ZM23.06 20.176C23.0605 19.8779 23.1792 19.5921 23.3901 19.3814C23.601 19.1707 23.8869 19.0523 24.185 19.052H25.75C26.048 19.0523 26.3337 19.1708 26.5445 19.3815C26.7552 19.5922 26.8737 19.878 26.874 20.176V27C26.8726 27.2973 26.7537 27.582 26.5431 27.7919C26.3324 28.0018 26.0473 28.1197 25.75 28.12H24.185C23.8875 28.1197 23.6023 28.0018 23.3915 27.792C23.1807 27.5821 23.0616 27.2974 23.06 27V20.176ZM14.824 15.076C14.823 15.3074 14.7535 15.5333 14.6242 15.7252C14.4949 15.9171 14.3117 16.0664 14.0976 16.1543C13.8836 16.2422 13.6483 16.2646 13.4215 16.2189C13.1946 16.1731 12.9865 16.0612 12.8232 15.8973C12.6599 15.7333 12.5489 15.5246 12.5041 15.2976C12.4593 15.0706 12.4828 14.8354 12.5716 14.6217C12.6604 14.4081 12.8105 14.2255 13.0029 14.097C13.1954 13.9686 13.4216 13.9 13.653 13.9C13.9635 13.9005 14.2612 14.0242 14.4808 14.2439C14.7003 14.4636 14.8237 14.7614 14.824 15.072V15.076ZM27.24 3.4L26.24 10.15C26.2188 10.2962 26.169 10.4367 26.0934 10.5636C26.0178 10.6905 25.918 10.8013 25.7995 10.8895C25.6811 10.9777 25.5464 11.0418 25.4032 11.0779C25.26 11.114 25.1111 11.1215 24.965 11.1L23.417 10.871C23.2708 10.8496 23.1303 10.7996 23.0034 10.7238C22.8766 10.6479 22.766 10.5479 22.678 10.4292C22.5899 10.3106 22.5261 10.1758 22.4902 10.0324C22.4544 9.88912 22.4472 9.74012 22.469 9.594L23.469 2.844C23.5132 2.54923 23.6724 2.28399 23.9117 2.10632C24.1511 1.92865 24.451 1.85303 24.746 1.896L26.294 2.125C26.5881 2.16947 26.8527 2.32852 27.0299 2.56741C27.2072 2.8063 27.2827 3.10562 27.24 3.4Z" fill="#2F4858"/>
</svg>
