<svg width="500" height="500" viewBox="0 0 500 500" fill="none" xmlns="http://www.w3.org/2000/svg">
<path d="M386.32 284.89H305.55C297.266 284.882 289.324 281.589 283.465 275.732C277.607 269.875 274.311 261.934 274.3 253.65V123.55H289.3V253.65C289.308 257.956 291.023 262.084 294.069 265.128C297.115 268.172 301.244 269.885 305.55 269.89H386.32C390.626 269.885 394.755 268.172 397.801 265.128C400.847 262.084 402.562 257.956 402.57 253.65V123.55H417.57V253.65C417.559 261.934 414.263 269.875 408.405 275.732C402.546 281.589 394.604 284.882 386.32 284.89Z" fill="#2F4858"/>
<path d="M244.89 160.25C235.16 160.239 225.831 156.369 218.951 149.489C212.071 142.609 208.201 133.28 208.19 123.55H223.19C223.198 129.303 225.487 134.818 229.555 138.885C233.622 142.953 239.137 145.242 244.89 145.25V160.25Z" fill="#2F4858"/>
<path d="M244.89 189.81C227.322 189.792 210.478 182.805 198.054 170.383C185.63 157.961 178.641 141.119 178.62 123.55H193.62C193.639 137.141 199.046 150.17 208.658 159.779C218.269 169.389 231.299 174.794 244.89 174.81V189.81Z" fill="#2F4858"/>
<path d="M410.42 237H282.14C280.812 236.999 279.508 236.646 278.361 235.976C277.215 235.306 276.267 234.344 275.614 233.188C274.961 232.031 274.626 230.722 274.645 229.394C274.664 228.067 275.035 226.768 275.72 225.63L298.88 187.13L300.26 123.39L315.26 123.72L313.83 189.45C313.81 190.757 313.44 192.034 312.76 193.15L295.41 222H397.15L379.8 193.14C379.121 192.023 378.749 190.747 378.72 189.44L377.3 123.71L392.3 123.38L393.69 187.12L416.85 225.62C417.538 226.758 417.911 228.06 417.931 229.39C417.95 230.72 417.616 232.031 416.961 233.19C416.307 234.348 415.356 235.311 414.207 235.981C413.057 236.65 411.75 237.002 410.42 237Z" fill="#2F4858"/>
<path d="M386.23 181.78H306.34V196.78H386.23V181.78Z" fill="#2F4858"/>
<path d="M247.1 376.45H232.1V246.18C232.092 241.915 230.392 237.828 227.374 234.815C224.355 231.802 220.265 230.11 216 230.11H135.8C131.54 230.115 127.455 231.81 124.443 234.823C121.43 237.835 119.735 241.92 119.73 246.18V376.45H104.73V246.18C104.741 237.943 108.017 230.046 113.842 224.222C119.666 218.397 127.563 215.121 135.8 215.11H216C224.239 215.118 232.138 218.394 237.965 224.218C243.791 230.043 247.069 237.941 247.08 246.18L247.1 376.45Z" fill="#2F4858"/>
<path d="M214.51 344.72H136.68C135.364 344.719 134.072 344.373 132.931 343.717C131.791 343.061 130.842 342.117 130.18 340.98L106.1 299.36C105.525 298.356 105.189 297.232 105.121 296.077C105.052 294.921 105.252 293.766 105.704 292.701C106.156 291.635 106.849 290.689 107.728 289.936C108.607 289.183 109.648 288.644 110.77 288.36C153.414 277.428 198.126 277.428 240.77 288.36C241.902 288.642 242.952 289.185 243.838 289.944C244.724 290.704 245.42 291.659 245.871 292.735C246.323 293.811 246.517 294.977 246.439 296.141C246.36 297.305 246.012 298.435 245.42 299.44L221 341C220.34 342.135 219.393 343.077 218.253 343.73C217.114 344.383 215.823 344.724 214.51 344.72ZM141 329.72H210.21L227.3 300.61C193.309 293.3 158.151 293.3 124.16 300.61L141 329.72Z" fill="#2F4858"/>
<path d="M130.541 336.961L129.123 376.195L144.113 376.737L145.531 337.502L130.541 336.961Z" fill="#2F4858"/>
<path d="M222.025 336.935L207.035 337.477L208.453 376.712L223.443 376.17L222.025 336.935Z" fill="#2F4858"/>
<path d="M238.94 261.47H225.29C210.6 261.47 198.66 250.67 198.66 237.39V226.57H213.66V237.39C213.66 242.31 218.98 246.47 225.29 246.47H238.94V261.47Z" fill="#2F4858"/>
<path d="M127.24 261.47H113.59V246.47H127.24C133.55 246.47 138.87 242.31 138.87 237.39V226.57H153.87V237.39C153.87 250.67 141.93 261.47 127.24 261.47Z" fill="#2F4858"/>
<path d="M108.842 302.771L86.1804 314.332L92.9972 327.694L115.658 316.132L108.842 302.771Z" fill="#2F4858"/>
<path d="M243.69 302.805L236.873 316.167L259.534 327.728L266.351 314.367L243.69 302.805Z" fill="#2F4858"/>
</svg>
