<svg width="500" height="500" viewBox="0 0 500 500" fill="none" xmlns="http://www.w3.org/2000/svg">
<g clip-path="url(#clip0)">
<path d="M239.812 129.876C238.385 130.42 237.157 131.384 236.29 132.641C235.423 133.898 234.959 135.389 234.958 136.916V232.302L201.932 206.36C200.357 205.164 198.376 204.635 196.415 204.886C194.454 205.138 192.67 206.149 191.448 207.704C190.226 209.258 189.664 211.23 189.882 213.195C190.101 215.16 191.083 216.96 192.616 218.208L233.044 249.968L192.601 281.729C191.804 282.334 191.136 283.091 190.635 283.957C190.135 284.823 189.811 285.78 189.684 286.773C189.557 287.765 189.628 288.773 189.895 289.737C190.161 290.701 190.617 291.603 191.235 292.389C191.853 293.176 192.622 293.831 193.496 294.317C194.37 294.803 195.333 295.111 196.327 295.221C197.321 295.332 198.327 295.243 199.287 294.961C200.247 294.679 201.141 294.208 201.917 293.577L234.958 267.635V363.021C234.958 364.55 235.422 366.044 236.29 367.302C237.159 368.561 238.389 369.526 239.818 370.069C241.248 370.612 242.809 370.708 244.294 370.343C245.779 369.978 247.118 369.17 248.132 368.026L308.427 300.194C309.109 299.425 309.627 298.525 309.949 297.549C310.27 296.573 310.389 295.542 310.297 294.518C310.205 293.495 309.905 292.501 309.415 291.597C308.925 290.694 308.255 289.901 307.447 289.266L257.418 249.968L307.432 210.671C308.24 210.036 308.91 209.243 309.4 208.339C309.89 207.436 310.19 206.442 310.282 205.419C310.374 204.395 310.255 203.364 309.933 202.387C309.612 201.411 309.094 200.511 308.412 199.743L248.117 131.911C247.101 130.767 245.76 129.96 244.274 129.597C242.788 129.233 241.226 129.331 239.797 129.876H239.812ZM250.032 263.324L291.831 296.169L250.032 343.199V263.309V263.324ZM250.032 236.613V156.737L291.831 203.767L250.032 236.628V236.613Z" fill="#2F4858"/>
</g>
<defs>
<clipPath id="clip0">
<rect width="235" height="235" fill="white" transform="translate(133 132)"/>
</clipPath>
</defs>
</svg>
