<svg width="500" height="500" viewBox="0 0 500 500" fill="none" xmlns="http://www.w3.org/2000/svg">
<path d="M278.24 124.61C275.366 119.668 271.245 115.567 266.289 112.717C261.334 109.867 255.717 108.366 250 108.366C244.283 108.366 238.666 109.867 233.711 112.717C228.755 115.567 224.634 119.668 221.76 124.61L110.76 305.71L110.66 305.88C107.794 310.846 106.285 316.479 106.286 322.213C106.286 327.947 107.796 333.579 110.663 338.545C113.53 343.51 117.653 347.634 122.618 350.501C127.584 353.369 133.216 354.879 138.95 354.88H145.06L135.36 371.68L152.69 392.89L250 360.32L347.32 392.89L364.65 371.68L354.95 354.88H361.06C366.794 354.879 372.426 353.369 377.392 350.501C382.357 347.634 386.48 343.51 389.347 338.545C392.214 333.579 393.724 327.947 393.724 322.213C393.725 316.479 392.216 310.846 389.35 305.88L278.24 124.61ZM153.52 370.21L242.52 216.09V347L157.76 375.36L153.52 370.21ZM342.26 375.38L257.5 347V216.09L346.5 370.21L342.26 375.38ZM376.36 331C374.826 333.7 372.599 335.943 369.91 337.497C367.221 339.051 364.166 339.859 361.06 339.84H346.29L250 173.1L153.71 339.88H138.94C135.846 339.878 132.808 339.064 130.127 337.519C127.446 335.975 125.218 333.754 123.664 331.079C122.111 328.404 121.286 325.368 121.273 322.274C121.26 319.181 122.059 316.138 123.59 313.45L234.59 132.37L234.69 132.2C236.241 129.515 238.472 127.286 241.157 125.736C243.843 124.186 246.889 123.37 249.99 123.37C253.091 123.37 256.137 124.186 258.823 125.736C261.508 127.286 263.739 129.515 265.29 132.2L376.41 313.45C377.95 316.12 378.756 319.15 378.747 322.232C378.738 325.314 377.915 328.339 376.36 331Z" fill="#2F4858"/>
</svg>
