<svg width="500" height="500" viewBox="0 0 500 500" fill="none" xmlns="http://www.w3.org/2000/svg">
<path d="M261.05 148.34C187.99 148.34 128.54 207.78 128.54 280.85C128.494 298.257 131.9 315.5 138.562 331.582C145.224 347.664 155.008 362.265 167.35 374.54L172.66 379.85L199.78 352.72L189.18 342.11L172.82 358.47C155.601 338.987 145.393 314.304 143.82 288.35H166.9V273.35H143.79C145.43 247.408 155.661 222.751 172.87 203.27L189.18 219.58L199.78 209L183.48 192.7C202.958 175.493 227.612 165.262 253.55 163.62V186.7H268.55V163.59C294.488 165.232 319.142 175.463 338.62 192.67L322.32 209L332.92 219.61L349.23 203.3C366.432 222.785 376.663 247.44 378.31 273.38H355.19V288.38H378.32C376.743 314.333 366.535 339.014 349.32 358.5L332.96 342.14L322.36 352.75L349.48 379.88L354.78 374.57C367.123 362.296 376.909 347.695 383.571 331.613C390.233 315.531 393.638 298.287 393.59 280.88C393.55 207.78 334.11 148.34 261.05 148.34Z" fill="#2F4858"/>
<path d="M261.05 308.82C265.344 308.839 269.585 307.871 273.445 305.989C277.305 304.107 280.68 301.363 283.31 297.969C285.94 294.574 287.754 290.62 288.611 286.413C289.469 282.205 289.347 277.857 288.256 273.703C287.164 269.55 285.132 265.704 282.317 262.462C279.501 259.22 275.978 256.668 272.019 255.005C268.06 253.342 263.771 252.612 259.485 252.871C255.199 253.131 251.03 254.372 247.3 256.5L213.65 222.84L203.05 233.45L236.7 267.1C234.292 271.354 233.041 276.166 233.073 281.054C233.105 285.942 234.419 290.737 236.883 294.959C239.348 299.181 242.876 302.683 247.117 305.115C251.357 307.547 256.161 308.825 261.05 308.82ZM261.05 267.87C263.621 267.87 266.135 268.633 268.272 270.061C270.41 271.489 272.077 273.52 273.06 275.895C274.044 278.271 274.302 280.885 273.8 283.406C273.299 285.928 272.061 288.244 270.242 290.062C268.424 291.881 266.108 293.119 263.586 293.62C261.064 294.122 258.451 293.864 256.075 292.881C253.7 291.897 251.669 290.23 250.241 288.092C248.812 285.955 248.05 283.441 248.05 280.87C248.05 277.422 249.42 274.116 251.858 271.678C254.296 269.24 257.602 267.87 261.05 267.87Z" fill="#2F4858"/>
<path d="M113.94 175.79H158.97V130.76H143.97V150.18L119.25 125.46L108.64 136.06L133.37 160.79H113.94V175.79Z" fill="#2F4858"/>
</svg>
