<svg width="500" height="500" viewBox="0 0 500 500" fill="none" xmlns="http://www.w3.org/2000/svg">
<path d="M321.68 395.739H168.68L128.49 371.6C115.14 363.6 109.57 348.67 114.95 335.35C118.46 326.63 126.18 319.729 136.13 316.409C141.737 314.538 147.681 313.891 153.559 314.51C159.438 315.129 165.116 317.001 170.21 319.999L172.85 321.6H317.51L320.15 319.999C325.248 317.006 330.929 315.139 336.809 314.525C342.69 313.911 348.633 314.564 354.24 316.439C364.18 319.759 371.9 326.66 375.42 335.38C380.8 348.7 375.23 363.61 361.88 371.63L321.68 395.739ZM172.84 380.739H317.52L354.15 358.739C361.15 354.539 364.15 347.389 361.51 340.959C359.64 336.329 355.26 332.57 349.51 330.64C345.967 329.438 342.207 329.01 338.485 329.385C334.762 329.759 331.163 330.927 327.93 332.809L321.71 336.57H168.71L162.49 332.809C159.257 330.927 155.658 329.759 151.935 329.385C148.213 329.01 144.453 329.438 140.91 330.64C135.15 332.57 130.76 336.329 128.91 340.959C126.27 347.489 129.16 354.469 136.26 358.739L172.84 380.739Z" fill="#2F4858"/>
<path d="M327.1 329.07H312.1V388.24H327.1V329.07Z" fill="#2F4858"/>
<path d="M178.26 329.07H163.26V388.24H178.26V329.07Z" fill="#2F4858"/>
<path d="M143.44 325.14C137.398 312.408 135.735 298.036 138.71 284.26L154.18 213C158.91 191.18 180.45 174.61 206.55 172.7C216.81 171.96 227.22 171.51 237.48 171.37L237.67 186.37C227.67 186.5 217.61 186.94 207.67 187.66C188.16 189.09 172.2 200.82 168.86 216.18L153.4 287.47C151.119 298.018 152.385 309.025 157 318.78L143.44 325.14Z" fill="#2F4858"/>
<path d="M344.92 325.14L331.33 318.78C335.983 309.026 337.273 298.005 335 287.44L327.38 252.3L342 249.12L349.62 284.26C352.61 298.032 350.957 312.406 344.92 325.14Z" fill="#2F4858"/>
<path d="M237.58 186.3H210C203.229 186.292 196.737 183.598 191.949 178.811C187.161 174.023 184.468 167.531 184.46 160.76V130.3C184.465 123.528 187.158 117.035 191.946 112.246C196.735 107.458 203.228 104.765 210 104.76H305.7V119.76H210C207.205 119.762 204.526 120.874 202.55 122.85C200.574 124.826 199.463 127.505 199.46 130.3V160.76C199.463 163.554 200.574 166.234 202.55 168.21C204.526 170.186 207.205 171.297 210 171.3H237.63L237.58 186.3Z" fill="#2F4858"/>
<path d="M196.61 184.3H181.61V329.07H196.61V184.3Z" fill="#2F4858"/>
<path d="M306.75 255.3H291.75V329.06H306.75V255.3Z" fill="#2F4858"/>
<path d="M287.22 118.04H272.22V166.82H287.22V118.04Z" fill="#2F4858"/>
<path d="M315.01 118.04H300.01V138.27H315.01V118.04Z" fill="#2F4858"/>
<path d="M315.01 227.939H300.01V248.169H315.01V227.939Z" fill="#2F4858"/>
<path d="M315.81 166.41H300.81V198.98H315.81V166.41Z" fill="#2F4858"/>
<path d="M287.22 197.99H272.22V246.77H287.22V197.99Z" fill="#2F4858"/>
<path d="M265.44 145.29H242.42V160.29H265.44V145.29Z" fill="#2F4858"/>
<path d="M371.53 145.29H349.58V160.29H371.53V145.29Z" fill="#2F4858"/>
<path d="M344.36 118.04H329.36V166.82H344.36V118.04Z" fill="#2F4858"/>
<path d="M344.36 199.39H329.36V248.17H344.36V199.39Z" fill="#2F4858"/>
<path d="M322.58 145.29H293.53V160.29H322.58V145.29Z" fill="#2F4858"/>
<path d="M322.58 204.51H293.53V219.51H322.58V204.51Z" fill="#2F4858"/>
<path d="M293.53 175.6H236.39V190.6H293.53V175.6Z" fill="#2F4858"/>
<path d="M378.15 175.6H321.01V190.6H378.15V175.6Z" fill="#2F4858"/>
<path d="M265.44 204.51H242.42V219.51H265.44V204.51Z" fill="#2F4858"/>
<path d="M373.14 204.51H351.19V219.51H373.14V204.51Z" fill="#2F4858"/>
<path d="M308.05 262.34C292.428 262.33 277.159 257.688 264.174 249.002C251.189 240.315 241.071 227.973 235.099 213.537C229.128 199.101 227.57 183.218 230.624 167.897C233.678 152.576 241.206 138.504 252.256 127.461C263.307 116.417 277.383 108.898 292.706 105.854C308.029 102.81 323.911 104.377 338.344 110.358C352.776 116.339 365.111 126.465 373.79 139.455C382.468 152.445 387.1 167.717 387.1 183.34C387.066 204.29 378.725 224.372 363.906 239.181C349.087 253.99 329 262.319 308.05 262.34ZM308.05 119.26C295.394 119.27 283.025 123.032 272.507 130.07C261.989 137.109 253.794 147.107 248.957 158.803C244.121 170.498 242.861 183.365 245.336 195.776C247.811 208.188 253.91 219.587 262.863 228.532C271.816 237.478 283.219 243.568 295.633 246.034C308.046 248.499 320.912 247.229 332.603 242.383C344.295 237.538 354.287 229.335 361.318 218.811C368.348 208.287 372.1 195.916 372.1 183.26C372.071 166.286 365.312 150.017 353.305 138.02C341.298 126.022 325.024 119.276 308.05 119.26Z" fill="#2F4858"/>
</svg>
