<svg width="500" height="500" viewBox="0 0 500 500" fill="none" xmlns="http://www.w3.org/2000/svg">
<path d="M423.53 309.43C422.694 304.183 420.375 299.284 416.848 295.31C413.321 291.336 408.731 288.453 403.62 287L330.36 257.71L275.36 231.38C266.645 227.227 257.114 225.065 247.46 225.05V240.05C254.872 240.059 262.19 241.719 268.88 244.91L324.08 271.34L398.83 301.25L399.27 301.36C401.682 302.001 403.855 303.328 405.526 305.182C407.197 307.036 408.292 309.335 408.68 311.8L411 326.16C411.283 327.996 411.165 329.872 410.654 331.659C410.144 333.445 409.253 335.1 408.043 336.51C406.832 337.92 405.332 339.051 403.643 339.826C401.954 340.601 400.118 341.001 398.26 341H394.43C394.49 340.1 394.54 339.19 394.54 338.28C394.38 328.481 390.375 319.138 383.388 312.266C376.402 305.393 366.995 301.541 357.195 301.541C347.395 301.541 337.988 305.393 331.002 312.266C324.015 319.138 320.01 328.481 319.85 338.28C319.85 339.19 319.85 340.1 319.96 341H175C175.06 340.1 175.11 339.19 175.11 338.28C174.95 328.481 170.945 319.138 163.958 312.266C156.972 305.393 147.565 301.541 137.765 301.541C127.965 301.541 118.558 305.393 111.572 312.266C104.585 319.138 100.58 328.481 100.42 338.28C100.42 339.19 100.42 340.1 100.53 341H97.33C95.0924 340.997 92.9472 340.107 91.3649 338.525C89.7827 336.943 88.8926 334.798 88.89 332.56V290.39C88.89 286.03 90.66 276.39 92.11 273.86L110.18 258C123.469 246.38 140.527 239.984 158.18 240H200.35V225H158.16C136.876 224.997 116.315 232.722 100.3 246.74L81.87 262.86C74.6 269.23 73.87 290.19 73.87 290.39V332.58C73.8832 338.791 76.3577 344.743 80.7512 349.133C85.1448 353.523 91.0992 355.992 97.31 356H104.87C108.068 361.933 112.812 366.89 118.599 370.345C124.386 373.8 131 375.625 137.74 375.625C144.48 375.625 151.094 373.8 156.881 370.345C162.668 366.89 167.412 361.933 170.61 356H324.33C327.526 361.933 332.269 366.891 338.055 370.346C343.842 373.802 350.455 375.626 357.195 375.626C363.935 375.626 370.548 373.802 376.335 370.346C382.121 366.891 386.864 361.933 390.06 356H398.26C402.284 355.996 406.259 355.122 409.913 353.436C413.568 351.751 416.814 349.295 419.429 346.237C422.044 343.179 423.967 339.591 425.065 335.72C426.163 331.849 426.41 327.786 425.79 323.81L423.53 309.43ZM137.74 360.65C133.32 360.65 128.998 359.339 125.323 356.883C121.648 354.427 118.783 350.937 117.091 346.853C115.4 342.769 114.957 338.275 115.819 333.94C116.682 329.604 118.81 325.622 121.936 322.496C125.062 319.37 129.044 317.242 133.38 316.379C137.715 315.517 142.209 315.96 146.293 317.651C150.377 319.343 153.867 322.208 156.323 325.883C158.779 329.558 160.09 333.88 160.09 338.3C160.085 344.226 157.728 349.908 153.538 354.098C149.348 358.288 143.666 360.645 137.74 360.65ZM357.19 360.65C352.77 360.65 348.448 359.339 344.773 356.883C341.098 354.427 338.233 350.937 336.541 346.853C334.85 342.769 334.407 338.275 335.269 333.94C336.132 329.604 338.26 325.622 341.386 322.496C344.512 319.37 348.494 317.242 352.83 316.379C357.165 315.517 361.659 315.96 365.743 317.651C369.827 319.343 373.318 322.208 375.773 325.883C378.229 329.558 379.54 333.88 379.54 338.3C379.535 344.226 377.178 349.908 372.988 354.098C368.798 358.288 363.116 360.645 357.19 360.65Z" fill="#2F4858"/>
<path d="M264.55 180.99L291.76 153.77L264.55 126.55L253.94 137.16L263.05 146.27H146.09L155.2 137.16L144.6 126.55L117.38 153.77L144.6 180.99L155.2 170.38L146.09 161.27H263.05L253.94 170.38L264.55 180.99Z" fill="#2F4858"/>
<path d="M244.79 195.19H153.48V210.19H244.79V195.19Z" fill="#2F4858"/>
</svg>