<svg width="500" height="500" viewBox="0 0 500 500" fill="none" xmlns="http://www.w3.org/2000/svg">
<path d="M276.11 387.78C273.242 387.779 270.386 387.413 267.61 386.69L207.34 371.06C198.71 368.814 191.323 363.235 186.801 355.548C182.279 347.862 180.991 338.695 183.22 330.06L230.45 147.89C232.689 139.255 238.267 131.863 245.955 127.34C253.644 122.817 262.815 121.533 271.45 123.77L331.71 139.4C335.987 140.507 340.004 142.445 343.532 145.105C347.06 147.764 350.029 151.093 352.27 154.901C354.511 158.708 355.979 162.92 356.592 167.295C357.205 171.67 356.949 176.124 355.84 180.4L308.62 362.56C306.749 369.765 302.544 376.147 296.662 380.709C290.781 385.272 283.554 387.758 276.11 387.78ZM263 137.68C258.875 137.697 254.871 139.08 251.614 141.613C248.358 144.146 246.032 147.686 245 151.68L197.74 333.82C196.505 338.604 197.218 343.683 199.723 347.942C202.227 352.201 206.319 355.293 211.1 356.54L271.37 372.17C276.157 373.408 281.24 372.695 285.501 370.188C289.763 367.681 292.856 363.585 294.1 358.8L341.33 176.63C342.571 171.85 341.865 166.772 339.366 162.512C336.866 158.252 332.779 155.158 328 153.91L267.73 138.28C266.185 137.882 264.596 137.681 263 137.68Z" fill="#2F4858"/>
<path d="M307.43 254.83C306.795 254.835 306.163 254.754 305.55 254.59L237.78 237C236.507 236.668 235.344 236.007 234.407 235.084C233.47 234.161 232.791 233.008 232.44 231.74L220.86 190.1C220.548 188.981 220.501 187.804 220.723 186.664C220.945 185.523 221.43 184.45 222.14 183.53C222.85 182.615 223.759 181.874 224.799 181.364C225.839 180.855 226.982 180.59 228.14 180.59C267.861 180.691 306.914 190.807 341.69 210C342.713 210.558 343.591 211.346 344.256 212.302C344.922 213.259 345.355 214.357 345.522 215.51C345.689 216.663 345.585 217.838 345.218 218.944C344.852 220.05 344.232 221.055 343.41 221.88L312.74 252.6C312.045 253.303 311.218 253.862 310.307 254.244C309.396 254.627 308.418 254.826 307.43 254.83ZM245.73 223.59L305.15 239L325.56 218.56C298.261 205.012 268.443 197.288 238 195.88L245.73 223.59Z" fill="#2F4858"/>
<path d="M305.83 352.15C305.195 352.155 304.563 352.074 303.95 351.91L193.07 323.17C191.783 322.837 190.608 322.169 189.665 321.233C188.722 320.297 188.044 319.128 187.701 317.844C187.358 316.56 187.363 315.208 187.714 313.926C188.065 312.645 188.751 311.48 189.7 310.55L218.2 282.61L233.62 228L248.05 232.08L232.05 288.58C231.689 289.844 230.999 290.99 230.05 291.9L209.67 312L294.87 334.09L286.74 306.62C286.369 305.368 286.331 304.041 286.63 302.77L300.13 245.63L314.73 249.08L301.73 304.28L313 342.52C313.334 343.639 313.401 344.82 313.197 345.97C312.993 347.12 312.522 348.205 311.824 349.141C311.125 350.077 310.218 350.836 309.174 351.358C308.129 351.881 306.978 352.152 305.81 352.15H305.83Z" fill="#2F4858"/>
<path d="M226.741 279.289L222.977 293.81L292.036 311.708L295.799 297.188L226.741 279.289Z" fill="#2F4858"/>
<path d="M345.61 187.62L333.72 184.54C327.644 183.028 322.318 179.374 318.72 174.25C316.936 171.726 315.717 168.848 315.146 165.811C314.575 162.774 314.665 159.649 315.41 156.65L317.85 147.23L332.4 151L330 160.41C329.804 161.331 329.805 162.283 330.003 163.203C330.201 164.123 330.592 164.991 331.15 165.75C332.711 167.881 334.974 169.392 337.54 170.02L349.43 173.1L345.61 187.62Z" fill="#2F4858"/>
<path d="M255.2 163.29C252.892 163.288 250.593 162.992 248.36 162.41L236.47 159.33L240.24 144.81L252.13 147.89C254.674 148.59 257.384 148.367 259.78 147.26C260.638 146.87 261.402 146.302 262.023 145.593C262.644 144.884 263.106 144.051 263.38 143.15L265.82 133.73L280.34 137.5L277.9 146.92C277.09 149.902 275.649 152.675 273.673 155.051C271.698 157.427 269.234 159.35 266.45 160.69C262.95 162.412 259.1 163.302 255.2 163.29Z" fill="#2F4858"/>
<path d="M223.022 192.778L200.684 197.726L203.928 212.371L226.266 207.423L223.022 192.778Z" fill="#2F4858"/>
<path d="M341.107 223.364L331.156 234.588L348.276 249.767L358.227 238.543L341.107 223.364Z" fill="#2F4858"/>
<path d="M342.39 228.98H327.39V402.55H342.39V228.98Z" fill="#2F4858"/>
<path d="M342.39 97.45H327.39V149.12H342.39V97.45Z" fill="#2F4858"/>
<path d="M154.24 402.55H139.24V376.89H154.24V402.55ZM154.24 356.89H139.24V321.89H154.24V356.89ZM154.24 301.89H139.24V266.89H154.24V301.89ZM154.24 246.89H139.24V211.89H154.24V246.89ZM154.24 191.89H139.24V156.89H154.24V191.89ZM154.24 136.89H139.24V101.89H154.24V136.89Z" fill="#2F4858"/>
</svg>
