<svg width="500" height="500" viewBox="0 0 500 500" fill="none" xmlns="http://www.w3.org/2000/svg">
<path d="M250 398.55C168.09 398.55 101.45 331.91 101.45 250C101.45 168.09 168.09 101.45 250 101.45C331.91 101.45 398.55 168.09 398.55 250C398.55 331.91 331.91 398.55 250 398.55ZM250 116.45C176.36 116.45 116.45 176.36 116.45 250C116.45 323.64 176.36 383.55 250 383.55C323.64 383.55 383.55 323.64 383.55 250C383.55 176.36 323.64 116.45 250 116.45Z" fill="#2F4858"/>
<path d="M278.2 346.83L233.79 274.19L150.42 257.19L312.24 169.26L278.2 346.83ZM193.73 250.7L243.18 260.8L270.77 305.92L291.54 197.55L193.73 250.7Z" fill="#2F4858"/>
</svg>
