<svg width="500" height="500" viewBox="0 0 500 500" fill="none" xmlns="http://www.w3.org/2000/svg">
<path d="M280 410.26H220C211.081 410.249 202.531 406.702 196.225 400.395C189.918 394.089 186.371 385.539 186.36 376.62V193C186.376 184.085 189.926 175.54 196.232 169.238C202.538 162.935 211.085 159.391 220 159.38H280C288.922 159.38 297.48 162.92 303.794 169.223C310.109 175.527 313.664 184.078 313.68 193V376.6C313.675 385.529 310.124 394.091 303.808 400.402C297.493 406.714 288.929 410.26 280 410.26ZM220 174.38C215.055 174.375 210.309 176.333 206.807 179.824C203.304 183.316 201.331 188.055 201.32 193V376.6C201.32 379.052 201.803 381.48 202.742 383.745C203.681 386.011 205.058 388.069 206.792 389.802C208.527 391.535 210.587 392.909 212.853 393.845C215.119 394.782 217.548 395.263 220 395.26H280C284.942 395.255 289.68 393.289 293.175 389.795C296.669 386.3 298.635 381.562 298.64 376.62V193C298.629 188.061 296.662 183.329 293.168 179.838C289.674 176.348 284.939 174.385 280 174.38H220Z" fill="#2F4858"/>
<path d="M250.14 352.9C230.728 352.855 211.395 350.416 192.58 345.64C191.448 345.358 190.397 344.815 189.512 344.056C188.626 343.296 187.93 342.341 187.479 341.265C187.027 340.189 186.833 339.023 186.911 337.859C186.99 336.695 187.338 335.566 187.93 334.56L209.49 297.84C210.153 296.714 211.099 295.78 212.234 295.131C213.368 294.482 214.653 294.14 215.96 294.14H284.63C285.944 294.142 287.235 294.488 288.374 295.144C289.513 295.801 290.459 296.744 291.12 297.88L312.37 334.6C312.943 335.605 313.277 336.728 313.344 337.883C313.412 339.037 313.212 340.192 312.76 341.257C312.308 342.322 311.616 343.268 310.739 344.021C309.861 344.774 308.821 345.315 307.7 345.6C288.886 350.389 269.554 352.841 250.14 352.9ZM206.05 333.33C235.148 339.42 265.192 339.42 294.29 333.33L280.29 309.16H220.25L206.05 333.33Z" fill="#2F4858"/>
<path d="M290.94 301.8L275.94 301.48L277.19 243.9C277.22 242.595 277.589 241.32 278.26 240.2L292.61 216.34H206.78L221.14 240.2C221.811 241.32 222.18 242.595 222.21 243.9L223.46 301.48L208.46 301.8L207.25 246.22L187.09 212.7C186.407 211.562 186.038 210.263 186.021 208.936C186.004 207.609 186.34 206.301 186.993 205.146C187.647 203.99 188.596 203.03 189.743 202.361C190.889 201.692 192.193 201.34 193.52 201.34H305.88C307.207 201.34 308.511 201.692 309.657 202.361C310.804 203.03 311.753 203.99 312.407 205.146C313.06 206.301 313.396 207.609 313.379 208.936C313.362 210.263 312.993 211.562 312.31 212.7L292.14 246.22L290.94 301.8Z" fill="#2F4858"/>
<path d="M284.69 236.56H214.71V251.56H284.69V236.56Z" fill="#2F4858"/>
<path d="M230.82 399.26H215.82V389.72C215.82 385.86 211.53 382.59 206.45 382.59H194.45V367.59H206.45C219.89 367.59 230.82 377.52 230.82 389.72V399.26Z" fill="#2F4858"/>
<path d="M283.57 399.26H268.57V389.72C268.57 377.52 279.51 367.59 292.95 367.59H305V382.59H293C287.92 382.59 283.62 385.86 283.62 389.72L283.57 399.26Z" fill="#2F4858"/>
<path d="M322.764 309.243L302.766 319.446L309.583 332.808L329.58 322.605L322.764 309.243Z" fill="#2F4858"/>
<path d="M176.633 309.268L169.816 322.629L189.814 332.832L196.631 319.47L176.633 309.268Z" fill="#2F4858"/>
<path d="M331.19 170.65H316.19C316.187 166.285 314.452 162.1 311.366 159.014C308.28 155.928 304.095 154.193 299.73 154.19V139.19C308.071 139.198 316.069 142.515 321.967 148.413C327.865 154.311 331.182 162.309 331.19 170.65Z" fill="#2F4858"/>
<path d="M355.44 170.65H340.44C340.429 159.856 336.137 149.508 328.505 141.875C320.872 134.243 310.524 129.951 299.73 129.94V114.94C314.5 114.956 328.661 120.83 339.105 131.275C349.55 141.719 355.424 155.88 355.44 170.65Z" fill="#2F4858"/>
<path d="M183.21 170.65H168.21C168.218 162.309 171.535 154.311 177.433 148.413C183.331 142.515 191.329 139.198 199.67 139.19V154.19C195.305 154.193 191.12 155.928 188.034 159.014C184.948 162.1 183.213 166.285 183.21 170.65Z" fill="#2F4858"/>
<path d="M159 170.65H144C144.019 155.879 149.895 141.718 160.341 131.274C170.787 120.83 184.949 114.956 199.72 114.94V129.94C188.925 129.951 178.576 134.243 170.942 141.875C163.308 149.507 159.013 159.855 159 170.65Z" fill="#2F4858"/>
<path d="M388.04 340.44H373.04V104.74H126.96V340.44H111.96V89.74H388.04V340.44Z" fill="#2F4858"/>
</svg>
