<svg width="500" height="500" viewBox="0 0 500 500" fill="none" xmlns="http://www.w3.org/2000/svg">
<path d="M250 402.92C334.32 402.92 402.92 334.32 402.92 250C402.92 165.68 334.32 97.0801 250 97.0801C165.68 97.0801 97.0801 165.68 97.0801 250C97.0801 334.32 165.68 402.92 250 402.92ZM250 112.08C326.05 112.08 387.92 173.95 387.92 250C387.92 326.05 326.05 387.92 250 387.92C173.95 387.92 112.08 326.05 112.08 250C112.08 173.95 174 112.08 250 112.08Z" fill="#2F4858"/>
<path d="M250 374.46C274.616 374.46 298.679 367.161 319.146 353.485C339.614 339.809 355.566 320.371 364.986 297.629C374.406 274.887 376.871 249.862 372.069 225.719C367.266 201.576 355.413 179.4 338.007 161.994C320.6 144.588 298.424 132.734 274.281 127.932C250.138 123.129 225.113 125.594 202.371 135.014C179.629 144.434 160.191 160.386 146.515 180.854C132.839 201.321 125.54 225.384 125.54 250C125.577 282.998 138.702 314.633 162.034 337.966C185.367 361.298 217.003 374.423 250 374.46ZM250 140.54C271.649 140.54 292.812 146.96 310.813 158.987C328.813 171.015 342.843 188.11 351.128 208.112C359.413 228.113 361.58 250.122 357.357 271.355C353.133 292.588 342.708 312.092 327.4 327.4C312.092 342.708 292.588 353.133 271.355 357.357C250.121 361.58 228.113 359.413 208.112 351.128C188.11 342.843 171.015 328.813 158.987 310.813C146.96 292.812 140.54 271.649 140.54 250C140.574 220.98 152.118 193.158 172.638 172.638C193.158 152.118 220.98 140.574 250 140.54Z" fill="#2F4858"/>
<path d="M234.8 190.05H267.2C269.189 190.05 271.097 189.26 272.503 187.854C273.91 186.447 274.7 184.539 274.7 182.55C274.7 180.561 273.91 178.654 272.503 177.247C271.097 175.84 269.189 175.05 267.2 175.05H234.8C232.811 175.05 230.903 175.84 229.497 177.247C228.09 178.654 227.3 180.561 227.3 182.55C227.3 184.539 228.09 186.447 229.497 187.854C230.903 189.26 232.811 190.05 234.8 190.05Z" fill="#2F4858"/>
<path d="M180.4 247.45H173.4C169.585 247.35 165.959 245.765 163.296 243.031C160.633 240.297 159.143 236.632 159.143 232.815C159.143 228.999 160.633 225.333 163.296 222.599C165.959 219.866 169.585 218.28 173.4 218.18H191.09V228.18H173.37C172.178 228.236 171.053 228.748 170.229 229.611C169.405 230.474 168.945 231.622 168.945 232.815C168.945 234.009 169.405 235.156 170.229 236.019C171.053 236.882 172.178 237.395 173.37 237.45H180.37L180.4 247.45Z" fill="#2F4858"/>
<path d="M181.43 266.71H163.74V256.71H181.43C182.658 256.71 183.836 256.222 184.704 255.354C185.572 254.486 186.06 253.308 186.06 252.08C186.06 250.852 185.572 249.675 184.704 248.806C183.836 247.938 182.658 247.45 181.43 247.45H173.37V237.45H181.43C185.31 237.45 189.032 238.992 191.775 241.735C194.519 244.479 196.06 248.2 196.06 252.08C196.06 255.96 194.519 259.681 191.775 262.425C189.032 265.169 185.31 266.71 181.43 266.71Z" fill="#2F4858"/>
<path d="M225.42 218.18H195.28V228.18H225.42V218.18Z" fill="#2F4858"/>
<path d="M215.35 223.18H205.35V264.95H215.35V223.18Z" fill="#2F4858"/>
<path d="M340.77 218.18H310.63V228.18H340.77V218.18Z" fill="#2F4858"/>
<path d="M330.71 223.18H320.71V264.95H330.71V223.18Z" fill="#2F4858"/>
<path d="M265.61 265H255.61V231.62C255.61 230.708 255.247 229.833 254.602 229.188C253.957 228.543 253.082 228.18 252.17 228.18H240.69C239.779 228.183 238.907 228.546 238.264 229.191C237.621 229.836 237.26 230.71 237.26 231.62V265H227.26V231.62C227.262 228.058 228.678 224.643 231.196 222.123C233.713 219.603 237.128 218.185 240.69 218.18H252.17C255.733 218.185 259.148 219.603 261.667 222.123C264.187 224.642 265.604 228.057 265.61 231.62V265Z" fill="#2F4858"/>
<path d="M260.61 239.07H232.26V249.07H260.61V239.07Z" fill="#2F4858"/>
<path d="M292.17 247.45H269.05V217H292.17C296.143 217.102 299.919 218.752 302.693 221.598C305.467 224.444 307.019 228.261 307.019 232.235C307.019 236.209 305.467 240.026 302.693 242.872C299.919 245.718 296.143 247.368 292.17 247.47V247.45ZM279.05 237.45H292.17C293.519 237.391 294.793 236.814 295.726 235.838C296.66 234.863 297.181 233.565 297.181 232.215C297.181 230.865 296.66 229.567 295.726 228.592C294.793 227.616 293.519 227.039 292.17 226.98H279.05V237.45Z" fill="#2F4858"/>
<path d="M279.05 242.45H269.05V264.95H279.05V242.45Z" fill="#2F4858"/>
<path d="M294.384 239.684L286.072 245.244L299.617 265.491L307.928 259.931L294.384 239.684Z" fill="#2F4858"/>
<path d="M326 279.62C320.046 294.876 309.645 307.99 296.147 317.262C282.649 326.534 266.676 331.537 250.3 331.62C248.32 331.591 246.405 332.324 244.951 333.668C243.497 335.012 242.616 336.864 242.49 338.84C242.454 339.848 242.621 340.853 242.983 341.794C243.344 342.736 243.892 343.594 244.593 344.319C245.294 345.044 246.135 345.619 247.064 346.011C247.993 346.403 248.992 346.604 250 346.6C269.43 346.588 288.407 340.727 304.459 329.779C320.511 318.832 332.896 303.305 340 285.22C340.461 284.077 340.633 282.838 340.503 281.612C340.372 280.387 339.942 279.212 339.25 278.192C338.559 277.171 337.627 276.337 336.537 275.761C335.447 275.185 334.233 274.886 333 274.89C331.493 274.881 330.018 275.328 328.768 276.172C327.519 277.016 326.554 278.218 326 279.62Z" fill="#2F4858"/>
</svg>
