<svg width="500" height="500" viewBox="0 0 500 500" fill="none" xmlns="http://www.w3.org/2000/svg">
<path d="M305.69 182.2H194.84V197.2H305.69V182.2Z" fill="#2F4858"/>
<path d="M303.93 318.21H195.64C184.412 318.197 173.648 313.731 165.709 305.791C157.769 297.852 153.303 287.088 153.29 275.86V97.24H168.29V275.86C168.298 283.111 171.182 290.063 176.309 295.191C181.437 300.318 188.389 303.202 195.64 303.21H303.93C311.181 303.202 318.133 300.318 323.261 295.191C328.388 290.063 331.272 283.111 331.28 275.86V97.24H346.28V275.86C346.267 287.088 341.801 297.852 333.861 305.791C325.922 313.731 315.158 318.197 303.93 318.21Z" fill="#2F4858"/>
<path d="M253.75 258C224.75 258 194.4 255.9 160.35 251.69C159.111 251.535 157.929 251.073 156.913 250.346C155.897 249.619 155.079 248.65 154.532 247.527C153.985 246.404 153.726 245.163 153.78 243.915C153.834 242.667 154.198 241.452 154.84 240.38L187.38 186.3L189.32 97.0801L204.32 97.4101L202.32 188.62C202.298 189.927 201.929 191.204 201.25 192.32L173.67 238.16C228.79 244.34 274.11 244.59 321.4 238.97L298.9 191.68C298.448 190.722 298.202 189.679 298.18 188.62L296.18 97.4101L311.18 97.0801L313.12 186.68L339.37 241.89C339.876 242.956 340.124 244.125 340.093 245.305C340.063 246.484 339.754 247.639 339.193 248.677C338.632 249.715 337.834 250.605 336.864 251.276C335.894 251.948 334.779 252.381 333.61 252.54C307.145 256.175 280.463 258 253.75 258Z" fill="#2F4858"/>
<path d="M250 369.8C243.768 369.809 237.595 368.588 231.836 366.206C226.077 363.824 220.845 360.329 216.44 355.92L227.05 345.31C233.14 351.391 241.394 354.806 250 354.806C258.606 354.806 266.86 351.391 272.95 345.31L283.56 355.92C279.155 360.329 273.923 363.825 268.164 366.207C262.405 368.589 256.232 369.81 250 369.8Z" fill="#2F4858"/>
<path d="M250 410.22C238.457 410.239 227.024 407.979 216.357 403.568C205.69 399.158 195.999 392.685 187.84 384.52L198.45 373.91C212.134 387.558 230.673 395.222 250 395.222C269.327 395.222 287.865 387.558 301.55 373.91L312.16 384.52C304.001 392.685 294.31 399.158 283.643 403.568C272.976 407.979 261.543 410.239 250 410.22Z" fill="#2F4858"/>
<path d="M337.18 278.83H306.88V293.83H337.18V278.83Z" fill="#2F4858"/>
<path d="M191.09 278.83H160.79V293.83H191.09V278.83Z" fill="#2F4858"/>
</svg>
